<svg width="24" height="24" viewBox="0 0 24 24" fill="none" xmlns="http://www.w3.org/2000/svg">
<g clip-path="url(#clip0_6_2)">
<path d="M23.781 19.281L16.5 12L23.781 4.71899C23.9205 4.57777 23.9987 4.38725 23.9987 4.18874C23.9987 3.99023 23.9205 3.79971 23.781 3.65849L20.3415 0.218992C20.272 0.149193 20.1893 0.0938108 20.0983 0.0560214C20.0073 0.0182319 19.9098 -0.0012207 19.8112 -0.0012207C19.7127 -0.0012207 19.6152 0.0182319 19.5242 0.0560214C19.4332 0.0938108 19.3505 0.149193 19.281 0.218992L12 7.49999L4.71899 0.218992C4.57835 0.078389 4.38762 -0.000597575 4.18874 -0.000597575C3.98987 -0.000597575 3.79914 0.078389 3.65849 0.218992L0.218992 3.65849C0.149193 3.72803 0.0938108 3.81067 0.0560214 3.90166C0.0182319 3.99266 -0.0012207 4.09021 -0.0012207 4.18874C-0.0012207 4.28727 0.0182319 4.38483 0.0560214 4.47582C0.0938108 4.56682 0.149193 4.64945 0.218992 4.71899L7.49999 12L0.218992 19.281C0.078389 19.4216 -0.000597575 19.6124 -0.000597575 19.8112C-0.000597575 20.0101 0.078389 20.2008 0.218992 20.3415L3.65849 23.781C3.72803 23.8508 3.81067 23.9062 3.90166 23.944C3.99266 23.9818 4.09021 24.0012 4.18874 24.0012C4.28727 24.0012 4.38483 23.9818 4.47582 23.944C4.56682 23.9062 4.64945 23.8508 4.71899 23.781L12 16.5L19.281 23.781C19.4216 23.9216 19.6124 24.0006 19.8112 24.0006C20.0101 24.0006 20.2008 23.9216 20.3415 23.781L23.781 20.3415C23.8508 20.272 23.9062 20.1893 23.944 20.0983C23.9818 20.0073 24.0012 19.9098 24.0012 19.8112C24.0012 19.7127 23.9818 19.6152 23.944 19.5242C23.9062 19.4332 23.8508 19.3505 23.781 19.281Z" fill="#444444"/>
</g>
<defs>
<clipPath id="clip0_6_2">
<rect width="24" height="24" fill="white"/>
</clipPath>
</defs>
</svg>
