<?xml version="1.0" encoding="utf-8"?>
<!-- Svg Vector Icons : http://www.onlinewebfonts.com/icon -->
<!DOCTYPE svg PUBLIC "-//W3C//DTD SVG 1.1//EN" "http://www.w3.org/Graphics/SVG/1.1/DTD/svg11.dtd">
<svg version="1.1" xmlns="http://www.w3.org/2000/svg" xmlns:xlink="http://www.w3.org/1999/xlink" x="0px" y="0px" viewBox="0 0 256 256" enable-background="new 0 0 256 256" xml:space="preserve">
<metadata> Svg Vector Icons : http://www.onlinewebfonts.com/icon </metadata>
<g><g><g><path fill="#000000" d="M122.7,16.6c-19.9,2.5-41.1,10.9-55.5,22.2L65.7,40l-3.5-5.2c-5.7-8.3-6.5-9.2-9.2-10.8c-4.9-2.9-11.2-2.6-15.7,0.8c-6.4,4.7-22,29.7-25.9,41.1c-3.9,11.6,0,25.3,9.8,34.7l3.9,3.7l-1,5.2c-0.7,3.7-1,8.8-1,18.5c0,11.6,0.2,14.4,1.4,20.5c9.3,46.5,44.7,81.3,91,89.7c8.8,1.6,29.3,1.6,38.1,0c41.9-7.6,75.8-37.7,88-78.1c3.6-11.7,4.4-17.8,4.4-32.2c0-14.4-0.8-20.5-4.4-32.2c-12-39.8-44.9-69.5-86.2-77.7c-5.2-1.1-9.6-1.4-18.7-1.6C130.3,16.4,123.9,16.5,122.7,16.6z M141.6,32.5c13.9,1.1,25.2,4.4,37.3,10.7c25.3,13.1,43.9,37.8,49.7,65.8c2.3,11.4,2.3,26.8,0,38.3c-3.6,17.7-13.3,35.7-26.2,48.6c-12.9,12.9-30.9,22.6-48.6,26.2c-11.5,2.3-26.9,2.3-38.3,0c-28-5.7-52.7-24.4-65.8-49.7c-8.5-16.4-12.2-35-10.7-52.1c1-10.5,0.6-9.7,6.2-9.7c17.6,0,32.5-13.1,35.1-31c0.9-6.2,0.1-11.1-3.4-19.4l-2.7-6.4l1.3-1.2c2.5-2.4,10.7-7.5,16.6-10.4c12.1-6.1,24.7-9.2,41-10.2C133.7,31.9,137.6,32.2,141.6,32.5z M53.1,50.1c2.6,4.1,6.2,10.4,7.9,14.1c3.1,6.2,3.2,6.9,3.2,11.4c-0.1,3.8-0.4,5.2-1.7,7.8c-6.2,11.9-20.2,14.8-29.8,6.2c-4.4-4-6.6-8.7-6.6-14.3c0-3.8,0.4-5.1,2.6-9.7c2.9-6.1,7.5-13.6,12.9-21.2l3.8-5.2L47,41C47.8,42,50.6,46.1,53.1,50.1z"/><path fill="#000000" d="M90.7,84.9c-6.7,1.7-13.1,6.9-15.9,13c-2.8,6.1-1.8,10.7,2.8,12.9c4.2,2.1,8.9,0.2,10.9-4.4c1.7-3.8,4.4-5.9,7.6-5.9c3.6,0,5.9,1.6,7.7,5.4c1.7,3.7,3.5,5.2,6.9,5.6c5,0.6,9.4-3.8,8.6-8.7c-1.4-9.4-11.2-17.7-21.6-18.2C95.1,84.5,92,84.6,90.7,84.9z"/><path fill="#000000" d="M167.1,85.1c-7.4,2.2-12.1,6-15.4,12.6c-1.8,3.7-2.2,5.1-1.9,6.9c0.7,4.7,4.9,7.7,9.4,6.9c3-0.6,4.4-1.7,6.3-5.7c2-3.9,4-5.3,7.8-5.3c3.1,0,5.8,2.1,7.5,6c3,6.7,11.6,7,14.6,0.4c1.1-2.4,1.2-3.1,0.4-5.6c-1-3.7-4.8-9.4-7.6-11.6C182.1,85.2,173.4,83.3,167.1,85.1z"/><path fill="#000000" d="M121.2,148.3c-14,2.6-25,7.3-35.8,15.2c-5.6,4.2-7.4,6.2-8,9.1c-0.8,4.4,3.2,9.1,7.7,9.1c2.5,0,3.7-0.6,8.6-4.4c24.3-18.9,57.6-18.9,81.8,0c4.9,3.8,6.1,4.4,8.6,4.4c4.6,0,8.6-4.7,7.7-9.2c-0.5-2.8-2.9-5.4-8.9-9.7c-9.9-7.1-22.5-12.4-34.7-14.5C141.4,147.2,127.3,147.2,121.2,148.3z"/></g></g></g>
</svg>